#!OML:ASF F:\VICON\USERDATA\INSTALL\rory3\rory3.ASF
:FULLY-SPECIFIED
:DEGREES
510
root 0.251215 17.0074 19.3793 8.97211 2.22409 4.46108
lowerback -6.73586 -2.25086 -5.13583
upperback -3.08135 -2.6778 -0.283806
thorax 0.806728 -1.30066 2.38548
lowerneck -11.6859 -1.87713 -9.30989
upperneck 20.5404 -2.59689 8.70444
head 8.53087 -1.08414 4.23942
rclavicle 4.0733e-014 -4.96962e-015
rhumerus -39.3959 2.48303 -88.2458
rradius 33.8247
rwrist -0.297097
rhand -25.8728 -49.532
rfingers 7.12502
rthumb 0.668583 -79.5107
lclavicle 4.0733e-014 -4.96962e-015
lhumerus -22.0233 -18.7489 92.8076
lradius 38.9372
lwrist 7.96561
lhand -32.882 -29.2298
lfingers 7.12502
lthumb -6.10031 0.662368
rfemur -41.5157 8.15947 10.888
rtibia 20.3803
rfoot -7.11606 -18.1141
rtoes -7.47478
lfemur 1.06168 -6.89499 -29.6546
ltibia 18.7632
lfoot -19.3305 -1.2595
ltoes -4.57452
511
root 0.208059 17.0013 19.5419 9.05939 2.10538 4.14158
lowerback -7.11357 -2.18134 -5.21554
upperback -3.11849 -2.5595 -0.142605
thorax 0.977488 -1.24345 2.57266
lowerneck -11.3651 -1.84355 -9.36244
upperneck 20.4994 -2.57345 8.74536
head 8.4561 -1.07959 4.26338
rclavicle -1.89964e-014 1.11319e-014
rhumerus -39.7526 2.35058 -88.1349
rradius 33.6593
rwrist -0.19457
rhand -25.9382 -48.9513
rfingers 7.12502
rthumb 0.605395 -78.9302
lclavicle -1.89964e-014 1.11319e-014
lhumerus -22.3467 -18.6487 93.0253
lradius 38.8043
lwrist 7.82538
lhand -33.0387 -29.7872
lfingers 7.12502
lthumb -6.25156 0.100566
rfemur -41.4217 8.95071 11.185
rtibia 20.6838
rfoot -7.02047 -18.4723
rtoes -6.88833
lfemur 1.17883 -6.61145 -29.1079
ltibia 19.148
lfoot -19.0883 -1.95397
ltoes -3.12285
512
root 0.196595 16.9898 19.6974 9.1335 2.3774 4.31765
lowerback -7.37184 -2.24358 -5.31817
upperback -3.08974 -2.61665 -0.204885
thorax 1.15622 -1.27612 2.55062
lowerneck -11.6178 -1.84324 -9.48961
upperneck 20.78 -2.56784 8.87549
head 8.59989 -1.0699 4.33917
rclavicle -4.63277e-014 -2.38542e-015
rhumerus -39.9653 2.1454 -87.9751
rradius 33.4973
rwrist 0.0461683
rhand -26.0074 -48.0916
rfingers 7.12502
rthumb 0.538588 -78.0707
lclavicle -4.63277e-014 -2.38542e-015
lhumerus -22.5408 -18.5212 93.2417
lradius 38.5769
lwrist 7.49172
lhand -33.2596 -29.7485
lfingers 7.12502
lthumb -6.46483 0.132868
rfemur -41.1138 8.41799 11.3576
rtibia 21.0502
rfoot -6.80822 -17.8888
rtoes -6.24914
lfemur 1.40233 -6.55317 -29.1674
ltibia 19.7517
lfoot -18.9422 -2.70694
ltoes -2.92318
513
root 0.175188 16.9773 19.8551 9.16149 2.47743 4.16319
lowerback -7.35892 -2.21016 -5.22171
upperback -3.27026 -2.58576 -0.164417
thorax 0.957454 -1.25309 2.54582
lowerneck -11.3489 -1.8958 -9.49652
upperneck 20.8733 -2.64629 8.77375
head 8.58895 -1.12368 4.29819
rclavicle 1.80428e-014 1.31198e-014
rhumerus -40.4029 1.99637 -87.8968
rradius 33.1633
rwrist -0.107106
rhand -26.1374 -47.7033
rfingers 7.12502
rthumb 0.413029 -77.6826
lclavicle 1.80428e-014 1.31198e-014
lhumerus -23.0953 -18.4723 93.5635
lradius 38.4364
lwrist 7.51802
lhand -33.1358 -30.0398
lfingers 7.12502
lthumb -6.3453 -0.154826
rfemur -40.8872 8.42897 11.7574
rtibia 21.6209
rfoot -6.51508 -17.568
rtoes -6.83995
lfemur 1.66231 -6.35774 -28.8417
ltibia 20.2399
lfoot -18.9098 -3.26253
ltoes -4.97286
514
root 0.145346 16.9664 20.004 9.32082 2.54892 4.06793
lowerback -7.36368 -2.20489 -5.29322
upperback -3.47302 -2.5804 -0.124418
thorax 0.754003 -1.24094 2.63191
lowerneck -10.992 -1.90412 -9.4574
upperneck 20.7995 -2.67214 8.67679
head 8.49903 -1.14946 4.25235
rclavicle 3.19608e-014 9.14409e-015
rhumerus -40.7032 1.86872 -87.8608
rradius 32.9369
rwrist -0.205748
rhand -25.9988 -47.8873
rfingers 7.12502
rthumb 0.54689 -77.8664
lclavicle 3.19608e-014 9.14409e-015
lhumerus -23.5863 -18.2626 93.7407
lradius 38.3609
lwrist 7.58771
lhand -32.5121 -30.3107
lfingers 7.12502
lthumb -5.7432 -0.408549
rfemur -40.8695 8.6592 12.0082
rtibia 22.4017
rfoot -6.48762 -17.6248
rtoes -7.70742
lfemur 1.7277 -6.26948 -28.522
ltibia 20.5729
lfoot -18.8023 -3.76675
ltoes -7.49714
515
root 0.12592 16.9615 20.1893 9.50073 2.83635 3.94935
lowerback -8.03827 -2.29772 -5.14559
upperback -3.4088 -2.66902 -0.123927
thorax 1.19485 -1.29755 2.51564
lowerneck -11.2371 -1.90028 -9.49347
upperneck 21.0372 -2.67029 8.7673
head 8.62594 -1.13855 4.29695
rclavicle 1.42007e-014 -4.47266e-015
rhumerus -40.8309 1.65222 -87.8145
rradius 32.9053
rwrist 0.0783183
rhand -25.8276 -48.1466
rfingers 7.12502
rthumb 0.712257 -78.1252
lclavicle 1.42007e-014 -4.47266e-015
lhumerus -23.7992 -17.9777 93.7495
lradius 38.1401
lwrist 7.46515
lhand -32.33 -29.2004
lfingers 7.12502
lthumb -5.56738 0.706494
rfemur -40.5624 8.35236 12.4711
rtibia 23.1331
rfoot -6.93305 -17.3077
rtoes -6.91058
lfemur 1.91444 -6.35079 -28.2207
ltibia 21.0666
lfoot -18.7336 -4.30152
ltoes -8.80528
516
root 0.103404 16.9444 20.3735 9.43505 2.79208 3.89504
lowerback -8.29423 -2.26823 -5.13555
upperback -3.42497 -2.61478 -0.132662
thorax 1.31404 -1.27284 2.4974
lowerneck -11.2679 -1.84585 -9.66112
upperneck 21.27 -2.61256 8.96106
head 8.70833 -1.10604 4.40621
rclavicle 4.01297e-015 2.98177e-015
rhumerus -41.2003 1.46623 -87.7638
rradius 32.7528
rwrist 0.259068
rhand -25.7923 -48.2074
rfingers 7.12502
rthumb 0.746304 -78.1858
lclavicle 4.01297e-015 2.98177e-015
lhumerus -24.2566 -17.7646 93.8604
lradius 37.9184
lwrist 7.3809
lhand -32.3315 -29.1989
lfingers 7.12502
lthumb -5.56882 0.707961
rfemur -40.031 8.37859 12.8754
rtibia 23.7698
rfoot -7.36491 -17.0591
rtoes -4.84894
lfemur 2.30908 -6.16815 -28.0702
ltibia 21.6919
lfoot -18.5266 -4.71889
ltoes -8.70123
517
root 0.0888147 16.93 20.537 9.47151 3.11988 3.77173
lowerback -8.22355 -2.31327 -4.8899
upperback -3.63186 -2.70324 -0.139343
thorax 1.05729 -1.30945 2.35166
lowerneck -10.82 -1.69784 -9.83541
upperneck 21.1121 -2.46581 9.25009
head 8.55928 -1.03091 4.54718
rclavicle -2.47238e-015 7.25564e-015
rhumerus -41.6605 1.35257 -87.7395
rradius 32.4263
rwrist 0.261493
rhand -25.6659 -47.9921
rfingers 7.12502
rthumb 0.868385 -77.97
lclavicle -2.47238e-015 7.25564e-015
lhumerus -24.9803 -17.5972 94.0296
lradius 37.842
lwrist 7.33051
lhand -32.4962 -29.0931
lfingers 7.12502
lthumb -5.72777 0.809521
rfemur -39.6417 7.73972 13.5715
rtibia 24.4836
rfoot -6.59027 -16.9007
rtoes -5.52163
lfemur 2.73507 -6.12943 -27.7389
ltibia 21.9015
lfoot -17.7915 -5.52741
ltoes -7.30158
518
root 0.0293659 16.9285 20.717 9.7753 3.05958 3.27482
lowerback -8.69269 -2.2878 -4.93984
upperback -3.86224 -2.64768 0.085519
thorax 1.08447 -1.27622 2.6057
lowerneck -15.588 -2.856 -6.9865
upperneck 26.1768 -3.49628 4.78632
head 11.284 -1.69874 2.44075
rclavicle 2.25558e-014 -5.46658e-015
rhumerus -42.1249 1.18458 -87.6331
rradius 32.3167
rwrist 0.737313
rhand -24.8919 -48.6116
rfingers 7.12502
rthumb 1.61593 -78.5853
lclavicle 2.25558e-014 -5.46658e-015
lhumerus -25.7991 -17.3427 94.1991
lradius 37.8286
lwrist 7.45682
lhand -32.9413 -28.5373
lfingers 7.12502
lthumb -6.15752 1.35323
rfemur -39.8621 8.5789 14.2196
rtibia 25.0884
rfoot -4.86921 -18.0917
rtoes -6.98353
lfemur 2.80485 -5.73023 -26.8038
ltibia 21.9803
lfoot -16.9696 -6.376
ltoes -8.0371
519
root 0.0257118 16.9564 20.9041 9.65524 3.3996 3.08367
lowerback -8.87209 -2.32338 -4.4737
upperback -3.89097 -2.72232 0.0770844
thorax 1.14003 -1.31826 2.32239
lowerneck -15.3374 -2.79018 -7.25763
upperneck 26.1205 -3.43348 5.10635
head 11.2191 -1.66087 2.61506
rclavicle 1.85553e-014 -4.87022e-015
rhumerus -42.5189 0.822276 -87.2899
rradius 32.5046
rwrist 2.20511
rhand -23.4654 -50.2985
rfingers 7.12502
rthumb 2.99365 -80.2572
lclavicle 1.85553e-014 -4.87022e-015
lhumerus -26.4646 -16.9875 94.359
lradius 37.7036
lwrist 7.8345
lhand -33.332 -31.7172
lfingers 7.12502
lthumb -6.53476 -1.83805
rfemur -39.5243 8.13966 14.6998
rtibia 25.6321
rfoot -4.25927 -18.2092
rtoes -5.7678
lfemur 3.52862 -5.71677 -26.4425
ltibia 22.0138
lfoot -16.2439 -7.02589
ltoes -11.238
520
root 0.0046879 16.9814 21.0894 9.69363 3.48958 3.10414
lowerback -9.47322 -2.35168 -4.53265
upperback -3.71712 -2.71789 0.0842252
thorax 1.65325 -1.32817 2.33684
lowerneck -15.6974 -2.82969 -7.2247
upperneck 26.2507 -3.43573 4.96484
head 11.3379 -1.67182 2.55706
rclavicle -3.59676e-015 -5.56597e-015
rhumerus -42.5691 0.780715 -87.2494
rradius 32.4719
rwrist 2.27284
rhand -24.2939 -50.1832
rfingers 7.12502
rthumb 2.19356 -80.1517
lclavicle -3.59676e-015 -5.56597e-015
lhumerus -26.6036 -16.7052 94.3675
lradius 37.3883
lwrist 8.16625
lhand -33.173 -32.6825
lfingers 7.12502
lthumb -6.38125 -2.79861
rfemur -39.5289 8.48396 14.5746
rtibia 26.173
rfoot -3.86546 -18.4597
rtoes -3.84271
lfemur 3.94788 -5.62047 -26.2792
ltibia 22.0936
lfoot -15.1531 -7.7063
ltoes -13.3402
521
root -0.0318781 16.9895 21.2753 9.77542 3.46046 3.01894
lowerback -9.54247 -2.32885 -4.63228
upperback -3.99371 -2.68198 0.109045
thorax 1.40619 -1.2997 2.42627
lowerneck -15.505 -2.81445 -7.0997
upperneck 26.5312 -3.42695 4.80232
head 11.4002 -1.68023 2.48227
rclavicle 5.41067e-015 1.13307e-014
rhumerus -43.2453 0.794516 -87.3237
rradius 32.3477
rwrist 2.24436
rhand -24.3584 -50.1164
rfingers 7.12502
rthumb 2.13118 -80.0855
lclavicle 5.41067e-015 1.13307e-014
lhumerus -27.4977 -16.4106 94.4864
lradius 37.1324
lwrist 8.30609
lhand -32.782 -31.7689
lfingers 7.12502
lthumb -6.00373 -1.87401
rfemur -39.5462 8.98734 14.683
rtibia 26.8646
rfoot -2.81556 -18.5464
rtoes -4.30802
lfemur 4.2429 -5.34984 -25.9314
ltibia 22.2398
lfoot -13.838 -8.49532
ltoes -14.4734
